<svg xmlns="http://www.w3.org/2000/svg" width="40" height="40" fill="none"><path fill="#000" d="M0 0h40v40H0z"/><path fill="#5DFD63" d="M32.696 13.38c-.337-.094-.505-.146-.505-.31 0-.15.157-.213.359-.213.258 0 .43.12.46.32h.672c-.019-.54-.508-.87-1.132-.87-.576 0-1.031.229-1.031.811 0 .493.403.691.863.825.377.113.665.161.665.374 0 .134-.135.231-.385.231-.299 0-.546-.104-.546-.388h-.672c0 .594.523.937 1.218.937.669 0 1.057-.332 1.057-.844 0-.571-.519-.735-1.023-.873ZM34.553 15.038h.673v-2.122h.773v-.549h-2.223v.55h.777v2.12ZM38.462 14.074v-1.707h-.673v1.707c0 .348-.15.474-.445.474-.295 0-.444-.127-.444-.474v-1.707h-.673v1.707c0 .665.31 1.023 1.117 1.023.807 0 1.117-.358 1.117-1.023ZM31.57 18.538h1.223c.743 0 1.154-.474 1.154-1.333s-.448-1.337-1.192-1.337h-1.184v2.67Zm.673-2.12h.445c.419 0 .587.302.587.787 0 .486-.168.784-.587.784h-.445v-1.572ZM34.21 15.868v2.67h.672v-2.67h-.673ZM36.482 18.598c.84 0 1.323-.59 1.323-1.397 0-.803-.482-1.393-1.323-1.393-.848 0-1.323.59-1.323 1.393 0 .807.475 1.397 1.323 1.397Zm0-.549c-.49 0-.65-.38-.65-.848 0-.463.16-.844.65-.844.486 0 .65.381.65.844 0 .467-.164.848-.65.848ZM1.538 26.65h5.45v-3.298H5.023V12.308H1.538V26.65ZM7.535 26.65h3.484V12.309H7.535V26.65ZM18.868 21.63c.123-.88.307-2.376.47-3.565-.02 1.127-.04 2.5-.04 3.566v5.02h3.422V12.308h-4.938l-.43 4.2c-.083.82-.144 1.721-.206 2.623-.061-.902-.123-1.803-.204-2.623l-.43-4.2h-4.775V26.65h3.033v-5.02c0-1.066-.02-2.316-.041-3.402.164 1.148.327 2.52.45 3.402l.656 5.02h2.377l.656-5.02ZM27.818 26.65h3.504l-1.68-14.342h-4.816l-1.68 14.343h3.135l.123-1.68h1.291l.123 1.68Zm-.779-11.863c.082 2.213.226 4.528.43 7.213h-.84c.185-2.685.308-5 .41-7.213Z"/></svg>